<?xml version="1.0" encoding="UTF-8"?>
<svg version="1.1" xmlns="http://www.w3.org/2000/svg" width="1024" height="1024">
<path d="M0 0 C337.92 0 675.84 0 1024 0 C1024 337.92 1024 675.84 1024 1024 C686.08 1024 348.16 1024 0 1024 C0 686.08 0 348.16 0 0 Z " fill="#F8F7F5" transform="translate(0,0)"/>
<path d="M0 0 C212.96056511 -0.07997017 212.96056511 -0.07997017 265.47773719 -0.06786036 C268.69734574 -0.06712305 271.91695429 -0.06638796 275.13656285 -0.06569472 C352.17846207 -0.04905354 429.22000389 0.05528826 506.26171875 0.22265625 C509.53842708 0.22973736 512.8151354 0.23681803 516.09184374 0.24389379 C614.39464782 0.4583559 712.69732095 0.73907716 811 1 C811 205.27 811 409.54 811 620 C543.37 620 275.74 620 0 620 C0 415.4 0 210.8 0 0 Z " fill="#010101" transform="translate(107,202)"/>
<path d="M0 0 C1.71272855 0.00056958 1.71272855 0.00056958 3.46005768 0.00115067 C5.42830033 -0.00183564 5.42830033 -0.00183564 7.43630546 -0.00488228 C8.91071951 -0.00202964 10.38513338 0.00091576 11.85954708 0.00394398 C13.40757175 0.00350699 14.95559636 0.00263088 16.50362056 0.00134999 C20.78658506 -0.00090522 25.0695248 0.00313702 29.35248615 0.00812577 C34.0310835 0.01247294 38.7096796 0.01103245 43.38827842 0.01030785 C52.4822984 0.00977481 61.57630855 0.01440554 70.67032599 0.02080918 C81.18285848 0.02799102 91.69538501 0.02880293 102.20792049 0.029594 C129.98107473 0.03485076 157.75422676 0.04881178 185.5273785 0.0616985 C278.556441 0.092636 278.556441 0.092636 373.4648785 0.1241985 C373.4648785 190.5341985 373.4648785 380.9441985 373.4648785 577.1241985 C311.4455035 577.1448235 249.4261285 577.1654485 185.5273785 577.1866985 C165.90663875 577.1958025 146.28589901 577.2049065 126.07059139 577.21428639 C102.20792049 577.21880299 102.20792049 577.21880299 91.05543941 577.21964222 C83.22548033 577.22057814 75.39552832 577.22426052 67.56557125 577.22977406 C58.5472113 577.23611509 49.52885818 577.23904017 40.51049599 577.23764345 C35.89187728 577.23703797 31.27327384 577.23803391 26.6546579 577.24341363 C22.48646204 577.24823948 18.3182924 577.24854854 14.1500954 577.2450996 C12.6354588 577.24467204 11.12082063 577.24597025 9.60618716 577.24908108 C7.55748108 577.25304482 5.50876524 577.25035472 3.46005768 577.24724633 C1.74732913 577.24781591 1.74732913 577.24781591 0 577.24839699 C-2.5351215 577.1241985 -2.5351215 577.1241985 -3.5351215 576.1241985 C-3.63516485 573.08339936 -3.66870544 570.0652465 -3.66096264 567.02395588 C-3.66241608 566.05228676 -3.66386952 565.08061765 -3.66536701 564.07950401 C-3.66905505 560.78013729 -3.6655277 557.48081596 -3.66210514 554.18144947 C-3.66325586 551.80953866 -3.66484304 549.43762802 -3.66683239 547.06571776 C-3.67015278 541.88633849 -3.67032682 536.70696868 -3.66778523 531.52758938 C-3.6640161 523.82590622 -3.6659295 516.12423191 -3.66899353 508.42254882 C-3.67427059 494.67053868 -3.6737984 480.91853318 -3.67091462 467.16652261 C-3.66840331 455.13221652 -3.66774038 443.09791214 -3.66893727 431.06360584 C-3.66901365 430.26667031 -3.66909004 429.46973478 -3.66916874 428.64864968 C-3.66948005 425.41397753 -3.66979845 422.17930539 -3.6701285 418.94463324 C-3.67319045 388.57435106 -3.67040936 358.20407183 -3.6650316 327.8337901 C-3.66028567 300.82626189 -3.66071029 273.81873839 -3.66549259 246.81121022 C-3.67084225 216.4979947 -3.67297334 186.1847818 -3.66988033 155.87156588 C-3.66955959 152.64264097 -3.66924675 149.41371606 -3.66893727 146.18479115 C-3.66885819 145.38969354 -3.66877911 144.59459594 -3.66869764 143.77540447 C-3.66755811 131.74594191 -3.66889426 119.71648123 -3.67141682 107.68701893 C-3.67426948 94.01486285 -3.67357539 80.34271214 -3.66813608 66.67055672 C-3.66518932 59.01004333 -3.66502313 51.34954156 -3.66878225 43.68902846 C-3.67127371 37.98477933 -3.66859189 32.28054237 -3.66380768 26.57629514 C-3.66268233 24.25667269 -3.66327723 21.9370487 -3.66568346 19.61742723 C-3.66868447 16.48640892 -3.66564607 13.35545589 -3.66096264 10.22444111 C-3.66330381 9.30485534 -3.66564497 8.38526958 -3.66805708 7.43781757 C-3.64606072 0.17862468 -3.64606072 0.17862468 0 0 Z " fill="#F7F7F5" transform="translate(523.5351215004921,223.8758015036583)"/>
<path d="M0 0 C30.03 0 60.06 0 91 0 C91 36.96 91 73.92 91 112 C124.66 112 158.32 112 193 112 C193 75.04 193 38.08 193 0 C223.03 0 253.06 0 284 0 C284 113.52 284 227.04 284 344 C253.97 344 223.94 344 193 344 C193 296.48 193 248.96 193 200 C159.34 200 125.68 200 91 200 C91 247.52 91 295.04 91 344 C60.97 344 30.94 344 0 344 C0 230.48 0 116.96 0 0 Z " fill="#F7F6F4" transform="translate(173,413)"/>
<path d="M0 0 C2.08024145 0.00257737 4.16048298 0.0050974 6.24072456 0.00756645 C7.28604261 0.00899737 8.33136065 0.01042829 9.408355 0.01190257 C14.93876966 0.01833276 20.46918545 0.0187549 25.99960327 0.01992798 C36.38193831 0.02298526 46.7642623 0.03111954 57.14659256 0.04127747 C71.24004854 0.05475469 85.33350774 0.05998398 99.42696857 0.06577969 C121.50144572 0.07506613 143.57589958 0.09502126 165.65037537 0.11329651 C165.65037537 30.47329651 165.65037537 60.83329651 165.65037537 92.11329651 C114.50037537 92.11329651 63.35037537 92.11329651 10.65037537 92.11329651 C10.65037537 119.50329651 10.65037537 146.89329651 10.65037537 175.11329651 C52.23037537 175.11329651 93.81037537 175.11329651 136.65037537 175.11329651 C136.65037537 205.47329651 136.65037537 235.83329651 136.65037537 267.11329651 C95.07037537 267.11329651 53.49037537 267.11329651 10.65037537 267.11329651 C10.65037537 332.12329651 10.65037537 397.13329651 10.65037537 464.11329651 C-21.02962463 464.11329651 -52.70962463 464.11329651 -85.34962463 464.11329651 C-85.34962463 311.32329651 -85.34962463 158.53329651 -85.34962463 1.11329651 C-28.17453068 -0.05354214 -28.17453068 -0.05354214 0 0 Z " fill="#010101" transform="translate(676.3496246337891,280.88670349121094)"/>
<path d="M0 0 C12.79980478 10.78378798 21.13415892 25.49416756 24 42 C25.27902381 61.75316626 23.56250481 79.25905676 10.0871582 94.77539062 C-3.31340579 109.49193535 -17.47032541 117.28409152 -37.53125 118.2734375 C-58.91240535 118.88677857 -74.38615769 111.48769727 -90.125 97.05078125 C-102.19324852 84.67611235 -107.55572629 67.50741537 -107.42016602 50.51464844 C-106.75044068 31.41998748 -98.74384224 15.08269531 -85 2 C-61.27122619 -19.8211665 -25.02219453 -18.77583173 0 0 Z " fill="#F7F6F4" transform="translate(450,261)"/>
<path d="M0 0 C1.64657593 0.00749268 1.64657593 0.00749268 3.32641602 0.01513672 C22.45940121 0.42387084 36.20036797 8.91431929 49.52734375 22.2109375 C61.10201444 34.79877565 66.5818916 51.20929502 66.27026367 68.10205078 C65.98813546 74.49649021 64.8771976 80.43050101 62.8125 86.5 C62.5340625 87.35851562 62.255625 88.21703125 61.96875 89.1015625 C56.38502758 104.64934131 43.43379393 118.65215299 28.76171875 126.03515625 C12.30654984 133.20684994 -6.86153196 134.42896286 -23.77734375 127.9765625 C-28.61144328 125.88344724 -32.92333015 123.59416622 -37.1875 120.5 C-38.10144531 119.84128906 -39.01539063 119.18257813 -39.95703125 118.50390625 C-54.01986841 107.71149633 -62.81457439 92.09102705 -65.1875 74.5 C-66.85572112 56.2671117 -62.60839174 38.94497369 -51.375 24.25 C-38.15520679 8.7235637 -20.51330707 -0.1228436 0 0 Z " fill="#F7F6F4" transform="translate(221.1875,247.5)"/>
<path d="M0 0 C7.02544877 5.64860203 10.38451373 13.68112512 12.20703125 22.375 C12.45989123 26.55906648 12.43835303 30.7465745 12.45703125 34.9375 C12.47765625 36.06736328 12.49828125 37.19722656 12.51953125 38.36132812 C12.57585691 50.59103598 10.15978731 62.14779305 1.42578125 71.2265625 C-5.22162192 76.75698399 -13.8978263 79.02456783 -22.4765625 78.65625 C-31.8836004 77.51408014 -39.3225015 74.67859978 -45.51171875 67.3359375 C-52.43663671 57.72931111 -53.27940822 47.96470445 -53.16796875 36.375 C-53.17957031 35.1684375 -53.19117188 33.961875 -53.203125 32.71875 C-53.16615674 21.38181823 -51.17753117 11.11086609 -43.16015625 2.65234375 C-31.20641276 -8.25611724 -13.61875806 -7.92364105 0 0 Z " fill="#020202" transform="translate(240.79296875,278.625)"/>
<path d="M0 0 C1.71272855 0.00056958 1.71272855 0.00056958 3.46005768 0.00115067 C5.42830033 -0.00183564 5.42830033 -0.00183564 7.43630546 -0.00488228 C8.91071951 -0.00202964 10.38513338 0.00091576 11.85954708 0.00394398 C13.40757175 0.00350699 14.95559636 0.00263088 16.50362056 0.00134999 C20.78658506 -0.00090522 25.0695248 0.00313702 29.35248615 0.00812577 C34.0310835 0.01247294 38.7096796 0.01103245 43.38827842 0.01030785 C52.4822984 0.00977481 61.57630855 0.01440554 70.67032599 0.02080918 C81.18285848 0.02799102 91.69538501 0.02880293 102.20792049 0.029594 C129.98107473 0.03485076 157.75422676 0.04881178 185.5273785 0.0616985 C278.556441 0.092636 278.556441 0.092636 373.4648785 0.1241985 C373.4648785 190.5341985 373.4648785 380.9441985 373.4648785 577.1241985 C311.4455035 577.1448235 249.4261285 577.1654485 185.5273785 577.1866985 C165.90663875 577.1958025 146.28589901 577.2049065 126.07059139 577.21428639 C102.20792049 577.21880299 102.20792049 577.21880299 91.05543941 577.21964222 C83.22548033 577.22057814 75.39552832 577.22426052 67.56557125 577.22977406 C58.5472113 577.23611509 49.52885818 577.23904017 40.51049599 577.23764345 C35.89187728 577.23703797 31.27327384 577.23803391 26.6546579 577.24341363 C22.48646204 577.24823948 18.3182924 577.24854854 14.1500954 577.2450996 C12.6354588 577.24467204 11.12082063 577.24597025 9.60618716 577.24908108 C7.55748108 577.25304482 5.50876524 577.25035472 3.46005768 577.24724633 C1.74732913 577.24781591 1.74732913 577.24781591 0 577.24839699 C-2.5351215 577.1241985 -2.5351215 577.1241985 -3.5351215 576.1241985 C-3.63516485 573.08339936 -3.66870544 570.0652465 -3.66096264 567.02395588 C-3.66241608 566.05228676 -3.66386952 565.08061765 -3.66536701 564.07950401 C-3.66905505 560.78013729 -3.6655277 557.48081596 -3.66210514 554.18144947 C-3.66325586 551.80953866 -3.66484304 549.43762802 -3.66683239 547.06571776 C-3.67015278 541.88633849 -3.67032682 536.70696868 -3.66778523 531.52758938 C-3.6640161 523.82590622 -3.6659295 516.12423191 -3.66899353 508.42254882 C-3.67427059 494.67053868 -3.6737984 480.91853318 -3.67091462 467.16652261 C-3.66840331 455.13221652 -3.66774038 443.09791214 -3.66893727 431.06360584 C-3.66901365 430.26667031 -3.66909004 429.46973478 -3.66916874 428.64864968 C-3.66948005 425.41397753 -3.66979845 422.17930539 -3.6701285 418.94463324 C-3.67319045 388.57435106 -3.67040936 358.20407183 -3.6650316 327.8337901 C-3.66028567 300.82626189 -3.66071029 273.81873839 -3.66549259 246.81121022 C-3.67084225 216.4979947 -3.67297334 186.1847818 -3.66988033 155.87156588 C-3.66955959 152.64264097 -3.66924675 149.41371606 -3.66893727 146.18479115 C-3.66885819 145.38969354 -3.66877911 144.59459594 -3.66869764 143.77540447 C-3.66755811 131.74594191 -3.66889426 119.71648123 -3.67141682 107.68701893 C-3.67426948 94.01486285 -3.67357539 80.34271214 -3.66813608 66.67055672 C-3.66518932 59.01004333 -3.66502313 51.34954156 -3.66878225 43.68902846 C-3.67127371 37.98477933 -3.66859189 32.28054237 -3.66380768 26.57629514 C-3.66268233 24.25667269 -3.66327723 21.9370487 -3.66568346 19.61742723 C-3.66868447 16.48640892 -3.66564607 13.35545589 -3.66096264 10.22444111 C-3.66330381 9.30485534 -3.66564497 8.38526958 -3.66805708 7.43781757 C-3.64606072 0.17862468 -3.64606072 0.17862468 0 0 Z M-1.5351215 2.1241985 C-1.5351215 191.2141985 -1.5351215 380.3041985 -1.5351215 575.1241985 C121.5548785 575.1241985 244.6448785 575.1241985 371.4648785 575.1241985 C371.4648785 386.0341985 371.4648785 196.9441985 371.4648785 2.1241985 C248.3748785 2.1241985 125.2848785 2.1241985 -1.5351215 2.1241985 Z " fill="#C0C0C0" transform="translate(523.5351215004921,223.8758015036583)"/>
<path d="M0 0 C0 27.06 0 54.12 0 82 C-5.94 82 -11.88 82 -18 82 C-18 61.87 -18 41.74 -18 21 C-26.0624238 25.390945 -26.0624238 25.390945 -34 30 C-34.66 30 -35.32 30 -36 30 C-36.02757191 28.33343119 -36.04664803 26.66672149 -36.0625 25 C-36.07410156 24.071875 -36.08570313 23.14375 -36.09765625 22.1875 C-36.06542969 21.135625 -36.03320312 20.08375 -36 19 C-36.03383789 18.35023193 -36.06767578 17.70046387 -36.10253906 17.03100586 C-36.07965992 14.72593256 -35.89724774 13.13174532 -35 11 C-32.16905509 8.56999456 -29.00023957 7.10989482 -25.625 5.5625 C-24.7484375 5.13001953 -23.871875 4.69753906 -22.96875 4.25195312 C-14.26118529 -0.00197183 -11.12742511 0 0 0 Z " fill="#040404" transform="translate(421,274)"/>
<path d="M0 0 C5.65890427 5.03013713 7.4956415 11.14764369 7.93676758 18.59912109 C8.66561953 39.77870131 8.66561953 39.77870131 2.75 48.5625 C-0.16282077 51.47532077 -1.98179817 51.67770851 -6 51.75 C-10.26113438 51.67642646 -12.96996956 51.52826395 -16.1875 48.5 C-22.643623 38.74993669 -22.12879549 25.79310099 -21.1875 14.5 C-19.8645599 8.282867 -18.04438689 3.71733499 -13.1875 -0.5 C-8.33612689 -2.11712437 -4.66829931 -2.19684673 0 0 Z " fill="#F6F6F4" transform="translate(227.1875,289.5)"/>
<path d="M0 0 C7.92 0 15.84 0 24 0 C23.67 0.66 23.34 1.32 23 2 C12.11 2.495 12.11 2.495 1 3 C1 28.08 1 53.16 1 79 C0.67 79 0.34 79 0 79 C0 52.93 0 26.86 0 0 Z " fill="#F1F1EF" transform="translate(688,373)"/>
<path d="M0 0 C0.66 1.32 1.32 2.64 2 4 C1.34 4 0.68 4 0 4 C0.33 4.99 0.66 5.98 1 7 C0.34 7 -0.32 7 -1 7 C-0.814375 7.556875 -0.62875 8.11375 -0.4375 8.6875 C0.07551165 11.399133 -0.3359276 13.34371039 -1 16 C-1.99 16 -2.98 16 -4 16 C-2.98408579 10.53135543 -1.92908943 5.23609987 0 0 Z " fill="#E9E9E8" transform="translate(161,286)"/>
<path d="M0 0 C0.99 0 1.98 0 3 0 C3 3.63 3 7.26 3 11 C2.01 11.33 1.02 11.66 0 12 C0 8.04 0 4.08 0 0 Z " fill="#E2E2E0" transform="translate(253,310)"/>
<path d="M0 0 C0.66 0.33 1.32 0.66 2 1 C1.56268919 6.68504055 1.26826873 7.73173127 -3 12 C-2.01 8.04 -1.02 4.08 0 0 Z " fill="#E7E7E6" transform="translate(347,289)"/>
<path d="M0 0 C-2.3125 1.5625 -2.3125 1.5625 -5 3 C-5.99 2.67 -6.98 2.34 -8 2 C-8 1.34 -8 0.68 -8 0 C-4.94736336 -0.98120464 -3.05263664 -0.98120464 0 0 Z " fill="#F0F0EF" transform="translate(395,250)"/>
<path d="M0 0 C4.455 0.99 4.455 0.99 9 2 C8.34 2.66 7.68 3.32 7 4 C3.875 3.625 3.875 3.625 1 3 C0.67 2.01 0.34 1.02 0 0 Z " fill="#EEEEEC" transform="translate(383,372)"/>
</svg>
